<?xml version="1.0" encoding="UTF-8"?>
<svg xmlns="http://www.w3.org/2000/svg" id="Lager_2" version="1.1" viewBox="0 0 74.4 74.4">
  <defs>
    <style>
      .st0 {
        fill: #fff;
      }

      .st1 {
        fill: #008b55;
      }
    </style>
  </defs>
  <g id="Lager_1-2">
    <g>
      <circle class="st0" cx="37.2" cy="37.2" r="37.2"></circle>
      <g>
        <circle class="st0" cx="37.2" cy="37.2" r="35.7"></circle>
        <g>
          <path class="st1" d="M37.2,1.5C17.5,1.5,1.5,17.5,1.5,37.2s1.6,12.1,4.5,17.2h0c0,.1,0,.1,0,.1,0,0,0,0,0,0h0c0,0,.2.2.3.2s0,0,0,0c5.3-1.2,9.6-2.3,13.3-6.1,4-4,5.4-7.8,4.4-11.3-.5-1.7-1.7-3.2-2.8-4.7-.5-.6-.9-1.2-1.3-1.7-.4-.5-.5-.8-.4-1.1,0-.2.5-.3.8-.2,1.3.3,2.6,1.7,3,2.2l1.5,1.7c.1.1.3.2.5.2.2,0,.4,0,.5-.2,1.7-1.8,2.2-4.1,2.7-6.4.3-1.2.5-2.4.6-3.5.1-.8.3-1.3.8-1.5.2,0,.5,0,.7,0,.1,0,.4.2.3,1,0,.1,0,.2,0,.3-.1.7-.2,1.4-.4,2.1v.6c-.4,1.5-.7,2.9-1.2,4.3,0,0,0,.2,0,.3,0,0,.1.2.2.2l.5.2s0,0,.1,0c.2,0,.3,0,.4-.3.6-1.5.9-3,1.2-4.5v-.6c.3-.7.4-1.4.5-2.1,0-.1,0-.3,0-.4h0c0-.2,0-.3,0-.5,0-.5,0-.9.2-1.3,0-.2.2-.4.4-.5.2-.1.5-.2.7,0,.7.2.8.7.5,2.4,0,.2,0,.3,0,.5,0,.3-.1.5-.1.7,0,.1,0,.3,0,.4v.5c-.2.5-.3,1-.4,1.5-.4,1.6-.7,3.1-1.3,4.5,0,.2,0,.4.2.5l.5.2s0,0,.1,0,.1,0,.2,0c0,0,.2-.1.2-.2.6-1.5,1-3,1.4-4.7.1-.5.2-1,.3-1.6v-.5c.1-.1.2-.3.2-.4,0-.4.1-.8.3-1,.1-.1.3-.2.5-.2.2,0,.4,0,.5.1.3.3.3,1,.3,1.3-.1,1-.3,2.2-.6,3.4,0,0,0,0,0,0,0,.2,0,.3-.1.5-.3,1.2-.6,2.4-1.1,3.9,0,0,0,.1,0,.2,0,.1.1.3.3.3h0s.4.2.4.2c0,0,.2,0,.3,0,0,0,.2-.1.2-.2.5-1.5.9-2.8,1.2-4.1,0-.4.2-.8.4-1,.1-.2.3-.3.5-.3,0,0,.2,0,.4.2.3.3.4.9.3,1.8-.3,2.9-.9,5.9-1.7,8.8,0,.1,0,.2,0,.3,0,.3-.1.5-.2.8,0,.2,0,.3-.1.5-2.5,8.2-6.7,15.9-11.8,21.1-2.2,2.2-3.8,3.7-6.8,5.5-.1,0-.2.2-.2.3,0,.1,0,.3.2.3l.6.3s0,0,0,0c5.4,3.2,11.6,5.1,18.3,5.1,19.7,0,35.7-16,35.7-35.7S56.9,1.5,37.2,1.5ZM35.3,20.5s0,0,0,0c0,0,0,0,0,0ZM35.6,21.2s0,0,0,0c0,0,0,0,0,0ZM35.3,20.6s0,0,0,0c0,0,0,0,0,0ZM35.4,20.8h0s0,0,0,0ZM35.5,21s0,0,0,0c0,0,0,0,0,0ZM35.6,21.3s0,0,0,0c0,0,0,0,0,0ZM35.6,21.5s0,0,0,0c0,0,0,0,0,0ZM35.7,21.7s0,0,0,0c0,0,0,0,0,0ZM35.7,21.9h0s0,0,0,0ZM37.2,58.9c-2.5,0-5-.4-7.3-1.3,3.2-4.4,5.8-9.6,7.7-15.2,0,0,0,0,0,0,2.3,4.7,5.2,9,8.4,12.3.4.4.8.8,1.3,1.2l.3.3c-.4.2-.8.4-1.2.6-2.8,1.3-6,2.1-9.3,2.1h0ZM49.8,54.9c-.3.2-.6.4-.9.6l-.4-.3c-.5-.5-1-.9-1.5-1.4-3.4-3.5-6.4-8.1-8.8-13.2h0c1-3.5,1.8-7,2.2-10.5.1-1.3,0-2.2-.6-2.8-.4-.4-.9-.7-1.5-.6-.1,0-.2,0-.4,0,0-.5.1-1,.2-1.4.1-1.1-.1-1.9-.7-2.5-.4-.3-.9-.5-1.4-.5h.2c0-.2,0-.3-.1-.5,0-.1,0-.3-.1-.5,0,0,0,0,0,0-.3-1.2-.4-2.3-.5-3.4,0-.3,0-1,.3-1.3.1,0,.3-.1.5-.1.2,0,.4,0,.5.2.2.2.2.6.3,1,0,.2,0,.3,0,.4v.5c.2.5.3,1,.4,1.5.4,1.7.8,3.1,1.3,4.6,0,0,.1.2.2.2,0,0,.1,0,.2,0s0,0,.1,0l.5-.2c.2,0,.3-.3.2-.5-.5-1.4-.9-2.9-1.3-4.5-.1-.5-.2-1-.3-1.5v-.5c-.1-.1-.1-.2-.2-.4,0-.2,0-.5-.1-.7,0-.2,0-.3,0-.5-.3-1.7-.2-2.2.5-2.4.2,0,.5,0,.7,0,.2.1.3.3.4.5.1.4.2.8.2,1.3,0,.2,0,.3,0,.5,0,.1,0,.3,0,.4.1.7.2,1.4.4,2.1v.6c.4,1.5.7,3,1.3,4.5,0,.2.2.3.4.3s0,0,.1,0l.5-.2c0,0,.2-.1.2-.2,0,0,0-.2,0-.3-.5-1.4-.8-2.8-1.1-4.3v-.6c-.3-.7-.4-1.4-.5-2.1,0-.1,0-.3,0-.4,0-.7.2-.8.3-.9.2,0,.5,0,.7,0,.4.2.7.6.8,1.4.2,1.1.4,2.3.6,3.5.4,1.8.8,3.7,1.9,5.3-.6,0-1.4.2-1.9.4-.9.3-1.7.7-2.5,1.3-.2.2-.7.4-.6.8,0,0,0,0,0,.1l.3.4c0,0,.2.1.3.2.2,0,.4-.2.6-.3.2-.1.4-.3.6-.4.4-.2.8-.5,1.2-.6.1,0,.3-.1.4-.2.7-.2,1.9-.4,2.7-.4.3,0,.4,0,.5-.3l1.5-1.7c.4-.4,1.6-1.8,3-2.1.3,0,.7,0,.7.2,0,.3,0,.5-.4,1.1-.4.6-.8,1.1-1.3,1.7-1.1,1.4-2.2,2.9-2.8,4.6-1.1,3.4.4,7.2,4.3,11.2.6.6,1.3,1.2,2,1.7.8.5,1.6,1.1,2.5,1.5.2,0,.4.2.6.2h.2c-.1.4-.2.7-.4,1-1.6,3.7-4.2,6.9-7.4,9.2h0ZM58.3,42.4c0,.4-.2.7-.3,1.1-.3-.1-.5-.2-.8-.4-.4-.2-.8-.4-1.1-.6-.8-.5-1.5-1-2.2-1.7-.2-.2-.4-.3-.5-.5-3.6-3.6-4.9-6.9-4-9.9.5-1.5,1.5-2.9,2.6-4.2.5-.6.9-1.2,1.3-1.8.4-.6.9-1.3.6-2.3-.3-1-1.5-1.3-2.3-1.1-1.7.4-3.3,2.1-3.7,2.6l-1,1.1c-1.1-1.4-1.4-3.3-1.8-5.1-.2-1.2-.5-2.3-.6-3.4-.1-.8-.4-2-1.6-2.5-.6-.2-1.2-.2-1.8,0,0,0,0,0-.1,0-.2-.5-.5-.9-.9-1.1-.5-.3-1.2-.4-1.7-.2-1.4.4-1.7,1.5-1.7,2.6,0,0-.2,0-.3,0-.5,0-1.1.2-1.4.5-.6.5-.8,1.4-.7,2.5,0,.6.1,1.2.2,1.8,0,0,0,0,0,0-.1,0-.2,0-.4-.1-.6-.2-1.2,0-1.7.2-.4.3-.8.7-.9,1.1,0,0,0,0-.1,0-.6-.2-1.2-.2-1.8,0-1.2.5-1.5,1.7-1.6,2.5-.2,1.1-.4,2.3-.6,3.5-.4,1.8-.8,3.7-1.8,5.2l-1-1.1c-.4-.5-2-2.2-3.7-2.6s-2,.1-2.3,1.1c-.3,1,.2,1.7.6,2.3.4.6.9,1.2,1.3,1.8,1,1.3,2.1,2.7,2.6,4.2.9,3-.5,6.3-4.1,10-.1.1-.2.2-.3.3-1.9-3.2-2.9-6.9-2.9-10.9,0-10.6,7.6-19.5,17.7-21.4.2-.6.6-1,.9-1.2.4-.4.9-.6,1.4-.7.4-1.8,1.7-2.4,2.5-2.6.9-.2,1.9-.1,2.7.4.3.2.6.4.9.7.6,0,1.2,0,1.8.3,1.3.6,2.1,1.7,2.3,3.5,0,.4.1.8.2,1.1,1.7.7,3.3,1.7,4.8,2.8.2,0,.4-.1.6-.2,1.4-.3,3.2.2,3.8,1.9.4,1,.1,1.9-.2,2.6,2.6,3.6,4.2,8,4.2,12.8s-.2,3.5-.6,5.2h0ZM34.7,20h0ZM34.6,19.9s0,0,0,0c0,0,0,0,0,0Z"></path>
          <g>
            <path class="st1" d="M55.9,32.6c0-.1,0-.2-.1-.3,0,0-.2-.1-.3,0-1.6.1-3.3.6-4.7,1.3,0,0-.2.1-.2.2s0,.2,0,.3l.3.5c0,.1.2.2.3.2s.1,0,.2,0c1.3-.7,2.8-1.1,4.2-1.2.2,0,.4-.2.4-.4v-.6s0,0,0,0Z"></path>
            <path class="st1" d="M50.9,32.2c0,0,.1,0,.2,0,1-.5,2-.8,3.1-.9.2,0,.4-.2.3-.4v-.6c0-.1-.2-.2-.2-.3s-.2,0-.3,0c-1.2.2-2.4.5-3.5,1-.2,0-.3.3-.2.5l.2.5c0,.1.2.2.4.2h0Z"></path>
          </g>
          <path class="st1" d="M25.9,26.7c-1.4-.8-3-1.3-4.7-1.5-.2,0-.4.1-.4.3v.6c0,.1,0,.2,0,.3s.2.1.3.1c1.4.2,2.9.6,4.2,1.4,0,0,.1,0,.2,0,.1,0,.3,0,.3-.2l.3-.5c0,0,0-.2,0-.3s0-.2-.2-.2h0Z"></path>
          <path class="st1" d="M26.6,24c-1.1-.5-2.3-.9-3.5-1.1-.1,0-.2,0-.3,0,0,0-.1.2-.2.3v.5c-.1.2,0,.4.2.5,1.1.2,2.1.5,3.1,1,0,0,.1,0,.2,0,.1,0,.3,0,.4-.2l.2-.5c0-.2,0-.4-.2-.5h0Z"></path>
        </g>
        <g>
          <g>
            <path class="st0" d="M37.3,69.9c0,.2,0,.2-.6.2s-.6,0-.6-.3v-3.1c.2-.1.2-.3,0-.3-.1,0-.6,0-.7,0,0,0,0,.1-.1.3v3.1c-.2.2-.2.2-.8.2-.6,0-.6,0-.6-.2l.4-7.7c0-.2,0-.2.6-.2.6,0,.6,0,.6.2v2.7c-.1.2-.1.3,0,.4.1,0,.5,0,.6,0,0,0,0-.2.1-.3v-2.8c.1-.2.2-.2.8-.1.6,0,.6,0,.6.2l-.4,7.6h0Z"></path>
            <path class="st0" d="M40.4,69.8c0,.2,0,.2-.6.2-.6,0-.6,0-.6-.1l-.6-7.7c0-.2,0-.2.6-.2.6,0,.6,0,.7.1l.6,7.7h0Z"></path>
            <path class="st0" d="M45.4,68.9c0,0,0,.2,0,.2,0,0-.2,0-.2,0-.1,0-.3-.4-.4-.4-.1,0-.1.5-.9.7-1.1.2-1.8-.4-2-1.2l-1-4.7c-.2-.8.2-1.7,1.3-1.9,1.1-.2,1.8.5,2,1.3v.6c.1.1,0,.2-.5.3-.4,0-.5.1-.6,0,0-.2-.1-.5-.1-.6,0-.2-.2-.5-.5-.4-.3,0-.4.5-.3.7l.9,4.3c0,.3.2.6.6.6.4,0,.4-.4.3-.5l-.3-1.5c0-.1,0-.1-.1-.1-.1,0-.3,0-.3,0,0,0,0-.2-.1-.3,0-.2,0-.3,0-.4.1-.1.6-.2,1.1-.3.5,0,.6,0,.6.1l.8,3.7h0Z"></path>
            <path class="st0" d="M50.4,67.2c0,.2,0,.2-.5.4-.6.2-.6.2-.7,0l-1.1-2.9c0-.1,0-.2-.2-.2-.1,0-.6.2-.6.2,0,0,0,.2,0,.3l1.1,2.9c0,.2,0,.2-.5.4-.5.2-.5.2-.6,0l-2.7-7.2c0-.2,0-.2.5-.4.6-.2.6-.2.7,0l1,2.5c0,.2.1.3.3.3.1,0,.5-.1.6-.2,0,0,0-.2,0-.3l-1-2.6c0-.2,0-.2.5-.4.6-.2.6-.2.7,0l2.7,7.2h0Z"></path>
            <path class="st0" d="M53,57.1c.3.4.3.5.2.6l-.9.6c0,0-.2.1-.2.2,0,.1,0,.2.1.3l.9,1.3c0,0,.1.2.2.2,0,0,.2,0,.2-.1.2-.1.5-.3.5-.4.1,0,.2,0,.5.4.3.4.3.5.2.6,0,0-.4.2-.5.3,0,0-.2.1-.2.2,0,.1,0,.2.1.4l1.7,2.4c.1.2,0,.2-.5.5-.4.3-.4.3-.6.2l-4.3-6.2c0-.1-.1-.2,0-.3,0-.1,0-.1.1-.2l2-1.4c.1,0,.2,0,.4.4h0Z"></path>
            <path class="st0" d="M59.2,61.5c.1.1.1.1-.4.6-.4.4-.4.4-.5.3l-5.1-5.8c-.1-.1,0-.2.3-.5.5-.4.5-.4.6-.3l5.1,5.8h0Z"></path>
            <path class="st0" d="M56.9,52.7c1.8,2.2,3.6,4.5,5,6,.1.1,0,.2-.3.6-.4.4-.4.5-.6.4-1.5-1.1-4.1-2.8-6.4-4.4-.1,0,0-.2.3-.6.4-.5.4-.4.6-.4.9.7,2.8,2.2,3.9,3,0,0,0,0,.1,0,0,0,0,0,0-.1-.9-1-2.6-2.8-3.3-3.6-.1-.1-.1-.2.3-.6.4-.4.4-.5.6-.4h0Z"></path>
            <path class="st0" d="M64.9,53.9c.4.3.5.3.4.4l-1.2,1.8c-.1.2-.2.3-.3.4-.1,0-.2,0-.4-.2l-6.1-4.1c-.1,0-.1,0-.2-.2,0-.1,0-.2,0-.3l1.3-2c0-.1.2,0,.5.2.4.3.5.3.4.5l-.6,1c0,0-.1.2,0,.3,0,0,0,0,.2.2l1.3.8c0,0,.2.1.3.1,0,0,.1-.1.2-.2l.3-.5c0-.1.1,0,.6.2.4.3.5.3.4.4l-.3.4c0,0-.1.2-.1.3,0,.1.1.2.2.3l1.4,1c.1,0,.3.2.4.2s.2-.2.2-.3l.6-.9c0-.1.1,0,.5.2h0Z"></path>
            <path class="st0" d="M67.1,46.1c.4.1.7.4,1,.9.2.5.2,1,0,1.4-.1.3-.3.8-.4,1.1,0,.1,0,.3-.2.3,0,0-.1,0-.4,0l-6.9-2.5c-.1,0-.2,0-.3-.2,0,0,0-.2,0-.3l.4-1.1c.2-.5.5-.9.9-1.1.4-.2.9-.2,1.3,0l.9.3c.3.1.5.3.7.5.2.3.1.6.2.6,0,0,.2-.3.6-.4.2,0,.4,0,.7,0l1.3.5h0ZM63.3,46.1l-.7-.3c-.2,0-.4-.1-.7,0-.1,0-.2.1-.3.3,0,.1,0,.2,0,.3s0,0,.1,0l1.6.6c0,0,.2,0,.2,0s0,0,.1-.2c0-.1,0-.3,0-.5-.1-.2-.2-.3-.4-.3h0ZM66.6,47.3l-.9-.3c-.4-.1-.7-.1-.8.2-.1.3-.1.4,0,.5l1.8.6c0,0,.2,0,.3,0,0,0,0,0,0-.2,0,0,0-.3,0-.4,0-.2-.2-.3-.4-.3h0Z"></path>
            <path class="st0" d="M68.3,41.3c.9.2,1.5.9,1.3,2-.2,1-1.1,1.5-1.9,1.3l-6.2-1.2c-.2,0-.2-.1,0-.7,0-.5.1-.6.3-.5l5.9,1.1c.3,0,.6,0,.7-.3,0-.4-.2-.5-.6-.6l-5.9-1.1c-.2,0-.2,0,0-.6.1-.6.2-.7.3-.6,0,0,6.2,1.2,6.2,1.2Z"></path>
            <path class="st0" d="M70,36.4c.2,0,.2,0,.2.6,0,.6,0,.6-.2.6h-2.7c-.4,0-.7,0-.7.3,0,.4,0,.5.1.5h3.2c.2,0,.2.2.2.8,0,.5,0,.6-.3.6l-7.5-.2c-.1,0-.2,0-.3,0,0,0,0-.2,0-.3v-1.1c0-.5.2-1,.5-1.3.3-.3.8-.5,1.3-.4h1c.3,0,.6,0,.8.2.3.2.4.6.4.6s0-.4.4-.6c.2-.1.4-.2.7-.2h2.9c0,0,0,0,0,0ZM64.8,37.5h-.8c-.2,0-.5,0-.6.1,0,0-.1.1-.2.4,0,.1,0,.2,0,.2,0,0,0,0,.2,0h1.7c.1,0,.2,0,.2,0,0,0,0-.1,0-.2,0-.1,0-.3-.2-.4-.2-.2-.3-.2-.4-.2h0Z"></path>
            <path class="st0" d="M69.4,31.3c0,0,.2,0,.2,0,0,0,0,.2,0,.2,0,.1-.4.3-.4.4,0,.1.5.2.6,1,.1,1.1-.6,1.8-1.4,1.9l-4.8.6c-.8.1-1.7-.4-1.8-1.4-.1-1.1.6-1.8,1.4-1.9h.6c.1,0,.2,0,.2.6,0,.4,0,.5,0,.6-.2,0-.5,0-.6,0-.2,0-.5.2-.4.5,0,.3.4.4.7.3l4.3-.6c.3,0,.6-.1.6-.5,0-.4-.4-.4-.5-.4l-1.5.2c-.1,0-.1,0-.1.1,0,.1,0,.3,0,.3,0,0-.2,0-.3,0-.2,0-.3,0-.4,0-.1-.1-.2-.6-.2-1.1s0-.6.2-.6l3.7-.5h0Z"></path>
            <path class="st0" d="M67.9,26.8c.5-.1.6-.1.6,0l.6,2.1c0,.2.1.4,0,.5,0,.1-.2.1-.4.2l-7,2c-.1,0-.2,0-.3,0s-.1-.1-.2-.2l-.7-2.3c0-.1,0-.2.5-.3.5-.1.6-.2.6,0l.3,1.1c0,0,0,.2.1.2,0,0,0,0,.2,0l1.5-.4c0,0,.2,0,.3-.2,0,0,0-.2,0-.3l-.2-.5c0-.1,0-.2.5-.3.5-.1.5-.2.6,0v.5c.2.1.2.2.3.3,0,0,.2,0,.3,0l1.7-.5c.1,0,.4-.1.4-.2s0-.2,0-.3l-.3-1.1c0-.1,0-.2.5-.3h0Z"></path>
            <path class="st0" d="M66.3,22c.2,0,.2,0,.4.5.2.5.3.5,0,.6l-2.4,1.1c-.4.2-.6.4-.5.7.2.4.2.4.3.3l2.9-1.3c.2,0,.2,0,.5.5.2.4.2.5,0,.6l-6.8,3.1c-.1,0-.2,0-.3,0-.1,0-.1-.1-.2-.2l-.5-1c-.2-.5-.3-1-.1-1.4.2-.4.5-.8,1-1l.9-.4c.3-.1.5-.2.8-.1.4,0,.6.4.6.3,0,0,0-.4,0-.7.1-.2.3-.4.6-.5l2.6-1.2h0ZM62.1,25.3l-.7.3c-.2.1-.4.2-.5.4,0,.1,0,.2,0,.4,0,0,0,.2.1.2,0,0,0,0,.2,0l1.6-.7c0,0,.2,0,.2-.1,0,0,0-.1,0-.2,0,0-.2-.2-.3-.3-.2,0-.4,0-.5,0h0Z"></path>
            <path class="st0" d="M62.1,18.7c.3-.2.7-.4,1-.4.8,0,1.2,0,1.6.7.5.8.4,1.7-.4,2.3l-.5.4c0,0-.2,0-.4-.4s-.4-.6-.3-.6l.4-.3c.4-.2.5-.4.3-.7-.2-.3-.4-.2-.6-.1-.2,0-.3.2-.5.3-.8.6-.8,3.1-2.3,4.1-.3.2-.8.4-1.1.4-.3,0-.9,0-1.4-.7-.5-.8-.3-1.8.4-2.2l.5-.3c0,0,.1,0,.4.4.2.4.4.6.3.6l-.4.3c-.3.2-.3.5-.2.6.1.2.4.2.5.1.2,0,.3-.1.4-.2,1.1-.7.7-3.1,2.3-4.1h0Z"></path>
          </g>
          <g>
            <path class="st0" d="M6,43.4l3.8-.9c.5-.1.9-.2,1.4.1.5.3.7.7.9,1.2,0,.3,0,.6,0,.9,0,.2-.2.5-.4.7l-1.2-.7c.1,0,.3-.2.4-.3,0,0,0-.2,0-.3,0,0,0-.2-.2-.2-.1,0-.4,0-.6,0l-3.8.9-.4-1.4h0Z"></path>
            <path class="st0" d="M5.5,39.9l3.4-.2c.2,0,.6,0,.9-.3.2-.2.2-.5.2-.7,0-.3-.1-.5-.3-.7-.3-.3-.7-.3-1.1-.3l-3.3.2v-1.5c0,0,3.2-.2,3.2-.2.6,0,1.2,0,1.9.5.5.5.8,1,.8,1.8,0,.9-.2,1.6-.6,1.9-.5.5-1.2.6-1.8.7l-3.3.2v-1.5c0,0,0,0,0,0Z"></path>
            <path class="st0" d="M5.8,32c0-.4.2-1,.7-1.3.4-.3.9-.4,1.3-.3.5,0,.9.3,1.1.6.2.3.3.6.3.8l2.6-1.4-.3,1.8-2.4,1.1,2.2.3-.2,1.5-5.6-.9s.4-2.3.4-2.3ZM8.2,33.2v-.3c0-.2,0-.5,0-.7,0-.1-.3-.2-.4-.3-.2,0-.4,0-.5.1-.2.1-.3.3-.3.7v.3s1.4.2,1.4.2Z"></path>
            <path class="st0" d="M8.9,25.5l-.6,1.7.9.3.5-1.6,1.2.4-.5,1.6.9.3.6-1.7,1.2.4-1.1,3.1-5.4-1.9,1.1-3.1,1.2.4h0Z"></path>
            <path class="st0" d="M12.1,25.1c.4-.1.9-.4,1.1-.9.1-.3.2-.5.1-.6,0-.1-.1-.2-.2-.3,0,0-.2,0-.4,0-.2,0-.3.2-.6.5l-.3.3c-.2.2-.5.4-.8.5-.4.1-.8,0-1-.2-.6-.3-.9-.8-1-1.1-.1-.4-.1-.9.2-1.5.3-.5.7-1,1.3-1.3l.7,1.1c-.5.2-.7.5-.8.7,0,.1-.1.3,0,.5,0,.1,0,.2.2.3,0,0,.2,0,.3,0,0,0,.2,0,.5-.3l.3-.3c.3-.3.6-.5,1-.6.4-.1.7,0,1.1.2.5.3.8.6,1,1.2.2.7,0,1.2-.3,1.8-.2.3-.4.6-.7.9,0,0-.4.3-.8.5l-.7-1.1h0Z"></path>
            <path class="st0" d="M14.1,18.9l-.6-2.9,1.2-1.4.6,3.5h3.9s-1.2,1.5-1.2,1.5h-3.1c0-.1,1.9,1.5,1.9,1.5l-1,1.1-4.4-3.7,1-1.1,1.8,1.5h0Z"></path>
            <path class="st0" d="M22.9,14.4c-.1.8-.6,1.5-1.3,2-.7.5-1.5.8-2.3.7-.8-.1-1.5-.6-2-1.2-.5-.6-.7-1.4-.6-2.3.1-.8.6-1.5,1.3-2,.7-.5,1.5-.8,2.3-.7.8,0,1.6.6,2,1.2.5.6.7,1.4.6,2.2h0ZM18.2,13.9c0,.4,0,.8.3,1.2.3.4.7.5,1,.6.4,0,.8,0,1.2-.3.4-.3.6-.7.7-1,0-.4,0-.8-.3-1.2-.3-.4-.7-.6-1-.6-.4,0-.9,0-1.2.3-.3.2-.6.6-.7,1.1Z"></path>
            <path class="st0" d="M25.9,10.2l2.7-1.1c.4,1,.5,1.9.1,2.7-.3.7-.9,1.2-1.6,1.4-.9.4-1.7.3-2.4,0-.6-.2-1.2-.7-1.6-1.6-.4-.8-.3-1.7,0-2.3.3-.6.8-1.2,1.7-1.6.5-.2,1.1-.3,1.6-.2.5,0,1,.4,1.4.7l-1.1,1.1c-.2-.2-.4-.3-.6-.4-.3,0-.6,0-.8,0-.3.1-.6.4-.7.7-.2.4-.1,1,0,1.4.2.5.5.8.9,1,.4.2.7.2,1.1,0,.2,0,.5-.3.7-.6,0-.2.2-.4,0-.7l-1.1.5-.4-1.1Z"></path>
            <path class="st0" d="M30.6,10.2c.4.2.9.4,1.4.3.3,0,.5-.2.5-.3,0-.1.1-.2,0-.4,0-.1,0-.2-.2-.3-.2,0-.4-.1-.8-.2h-.4c-.2,0-.6-.1-.9-.3-.3-.3-.5-.6-.5-.9-.1-.7,0-1.2.3-1.5.2-.3.7-.7,1.3-.8.6-.1,1.2,0,1.8.1l-.4,1.2c-.5-.3-.8-.2-1-.2-.1,0-.3,0-.4.3,0,.1-.1.2,0,.3,0,.1,0,.2.1.2,0,0,.2.1.5.2h.5c.4,0,.8.1,1.1.4.3.2.5.5.5.9,0,.5,0,1-.3,1.5-.4.6-1,.8-1.6.9-.4,0-.7,0-1.1,0,0,0-.5,0-.9-.3l.4-1.3h0Z"></path>
          </g>
        </g>
      </g>
    </g>
  </g>
</svg>
