<svg xmlns="http://www.w3.org/2000/svg" id="Lager_1" viewBox="0 0 184.9 153.41"><path d="m105.14,4.8c2.6,3,3.5,7.2,2.4,11.2-.8,2-2.6,4.2-4.5,5-3.4,1.7-7.9.7-10.8-1.4-1.9-1.7-3.1-3.6-3.2-6,0-2.2,1.1-4,2.7-5.4,1.4-1.1,3.3-1.5,5-1.1,2.5.5,4.3,3.1,4.9,5.4.1,1-.8,1.6-1.6,1.8-2.8-.7-.7-4.8-3.9-5.5-1.1-.6-2.3-.1-3.2.5-1.2,1-2.1,2.3-2.2,3.9,0,2.3,1.5,4.2,3.3,5.5,2.1,1.5,5.7,2,7.9.5,2-1.2,3.1-3.1,3.8-5.1.5-3.5-.4-7-3.3-9.4-3.8-3.4-9.9-3.7-14.4-1.7-3.7,1.7-6.8,5.6-7.7,9.4-.7,3.6.4,7.1,3.3,9.6,10.9,9.4,29.9,16,30.2,33.1.5,9-6.3,16-13.9,19.4-6.6,2.5-15,1.5-20.4-2.8-5-3.9-7.6-10-6.2-16.5,1.9-6,7.4-12.3,13.9-13.4,5.6-.9,11,.8,14.6,5,2.4,3.3,3.1,8.1,1.7,12-1,3.5-4.5,6.6-8,7.3-3.5.8-7,0-9.4-2.1-2.7-3-4.5-7-3.1-10.9.7-.6,1.5-1.2,2.5-.8,2.5,2.5-1.4,5,.6,7.7.7,2,2.2,4.1,4.4,4.3,3.8.6,7.8-.4,10-3.9,2.4-3,2.2-7.9.6-11.2-2.7-4.6-8.1-6.5-13.3-5.7-4.1.6-7.7,4-9.5,7.8-1.6,3.5-1.6,7.7,0,11.2,4,6.6,11.2,10.3,19.2,9.8,6.2-1.1,12-6.2,13.6-12.4.7-6.1-2.6-11.1-6.2-15.7-8.6-11.5-29.6-13.5-27-31.3,1.3-4.4,4.4-8.9,8.7-11.2,5.8-3.1,14.3-1.9,18.5,3.1Z" fill="#1d1d1b" stroke="#1d1d1b" stroke-linecap="square" stroke-miterlimit="2" stroke-width="0"></path><polygon points="113.14 13.3 110.24 12.9 110.34 11.8 113.24 12.4 113.14 13.3" fill="#1d1d1b" stroke="#1d1d1b" stroke-linecap="square" stroke-miterlimit="2" stroke-width="0"></polygon><path d="m75.74,13.3c-1,.2-2,.6-3,.6-.1-.3-.4-.5-.3-.9,1-.1,3.3-1.6,3.3.3Z" fill="#1d1d1b" stroke="#1d1d1b" stroke-linecap="square" stroke-miterlimit="2" stroke-width="0"></path><path d="m118.54,14.7c-1.1-.1-2.2-.4-3-.9l.2-.8,2.9.6-.1,1.1Z" fill="#1d1d1b" stroke="#1d1d1b" stroke-linecap="square" stroke-miterlimit="2" stroke-width="0"></path><path d="m70.04,14.3c-.4.7-1.7.8-2.6,1.1-.5-.1-.5-.7-.5-1.2,1-.1,3-1.6,3.1.1Z" fill="#1d1d1b" stroke="#1d1d1b" stroke-linecap="square" stroke-miterlimit="2" stroke-width="0"></path><path d="m123.94,16.2c-.9-.5-3.1-.2-2.8-1.7,1-.5,2,.4,2.9.6l-.1,1.1Z" fill="#1d1d1b" stroke="#1d1d1b" stroke-linecap="square" stroke-miterlimit="2" stroke-width="0"></path><path d="m64.74,16.1c-.9.4-2.7,1.7-3.2.4.7-.6,1.8-1.4,2.9-1.2l.3.8Z" fill="#1d1d1b" stroke="#1d1d1b" stroke-linecap="square" stroke-miterlimit="2" stroke-width="0"></path><path d="m129.14,18.4c-.9-.1-1.9-.6-2.8-1.1l.2-1c1,.5,3.3.6,2.6,2.1Z" fill="#1d1d1b" stroke="#1d1d1b" stroke-linecap="square" stroke-miterlimit="2" stroke-width="0"></path><path d="m59.54,17.9c-.7.5-1.7,1-2.7,1.3l-.6-.8c.8-.5,2.8-2.2,3.3-.5Z" fill="#1d1d1b" stroke="#1d1d1b" stroke-linecap="square" stroke-miterlimit="2" stroke-width="0"></path><path d="m134.34,20.2c-.3.3-.2,1.4-.9.8-.6-.7-2.4-.6-2.1-1.8l.4-.5,2.6,1.5Z" fill="#1d1d1b" stroke="#1d1d1b" stroke-linecap="square" stroke-miterlimit="2" stroke-width="0"></path><path d="m54.24,20.3c-1,.2-2.3,2-3,.7.2-1.1,1.6-1.1,2.4-1.7.5,0,.5.6.6,1Z" fill="#1d1d1b" stroke="#1d1d1b" stroke-linecap="square" stroke-miterlimit="2" stroke-width="0"></path><path d="m138.84,24.1l-.4.4-2.4-1.8.5-.8c.9.3,2.4,1.3,2.3,2.2Z" fill="#1d1d1b" stroke="#1d1d1b" stroke-linecap="square" stroke-miterlimit="2" stroke-width="0"></path><path d="m49.14,23.1l-2.1,2.1c-.3-.1-.5-.4-.7-.6.6-.9,1.8-2.6,2.8-1.5Z" fill="#1d1d1b" stroke="#1d1d1b" stroke-linecap="square" stroke-miterlimit="2" stroke-width="0"></path><path d="m142.74,28.3l-.6.5-2-2.3.7-.6c1,.5,1.5,1.6,1.9,2.4Z" fill="#1d1d1b" stroke="#1d1d1b" stroke-linecap="square" stroke-miterlimit="2" stroke-width="0"></path><path d="m45.14,27.1c-.8.8-1.4,3-2.6,2.1.1-.9,1-1.8,1.6-2.5.4-.2.7.3,1,.4Z" fill="#1d1d1b" stroke="#1d1d1b" stroke-linecap="square" stroke-miterlimit="2" stroke-width="0"></path><path d="m143.94,31.2c.3,1,1.1,3-.2,3.3h-.2l-.5-3c.3-.1.5-.4.9-.3Z" fill="#1d1d1b" stroke="#1d1d1b" stroke-linecap="square" stroke-miterlimit="2" stroke-width="0"></path><path d="m41.84,34.8l-.9-.1c-.2-1,.2-2.1.6-3l.9.2-.6,2.9Z" fill="#1d1d1b" stroke="#1d1d1b" stroke-linecap="square" stroke-miterlimit="2" stroke-width="0"></path><path d="m70.64,23.5c1.4,1.1,1.3,3.3.7,4.7-.2,1-1.3,1.6-2.1,2.2,1.5.9,3.6,2.2,3.9,4.2.4,1.8,0,3.6-1,4.9-2.2,3-6.6,2.4-9.9,1.9-.6-.6-2.8,0-2-1.7,1.2-.3,1.1-1.4,1.1-2.4-.1-4.5.2-8.3-.3-12.7-.8.2-2.4.1-2.6,1.3l-.3,13.7-1.6-.1v-6.5c-1.4-.6-3.2-.3-4.7-.2-1.2,2.1-.1,4.6.9,6.5.1.6-.2,1.4-.9,1.4-1.2-.5-1.4-2-1.9-3.1-1.3-3.1,0-6.4,1.2-9.1l-.6-1.1c5.2-3.4,11.3-5.8,18-5.1l2.1,1.2Zm-7.1.5c.1,2-.2,4.2.3,6,1.8.1,3.4-.4,4.8-1.3.6-.9,1.6-1.9,1.1-3.2-1.3-1.9-4.1-2.1-6.2-1.5Zm-7.2,2.2l-1.5.7c-1.4.9-2.2,2.4-2.3,4,1.3-.1,2.7.2,3.8-.3v-4.4Zm7.5,6c0,2.6-.6,5.3,0,7.8,2.5.3,5.6.2,7.1-2.2.3-1.3.4-3.1-.5-4.2-1.8-1.5-4.3-2-6.6-1.4Z" fill="#1d1d1b" stroke="#1d1d1b" stroke-linecap="square" stroke-miterlimit="2" stroke-width="0"></path><path d="m132.34,27.5c.1,1.8-.9,3.3-2.4,4.2,1.3.5,2.9,1.4,3.2,2.9.7,1.5.4,3.4-.6,4.7-2.8,3-7.9,1.3-11.2.6-.4-.1-.3-.8-.2-1.1.6-.1,1.2-.3,1.6-.7.5-4.5.6-9.2.4-13.7-1.2-.5-2.8-1.2-4-.4l.4,17.9c-.5.6-1.6.3-2.3.2l-.5-18c-2.7-.3-5.6.5-8.2,1.2-.4-.4-.1-1.1-.2-1.6,6.1-2.4,14.3-2.4,20.4,0,1.5.8,3.3,1.9,3.6,3.8Zm-7.1-2.8c-.1,1.8-.3,3.8.1,5.4,1.3.5,2.9.8,4-.2.7-.7,1.1-1.4,1.1-2.4-.9-2.2-3.3-2.2-5.2-2.8Zm0,8l-.2,6.3c1.8.2,4.4.8,5.9-.6.5-.7,1.1-1.5.7-2.5-1-2.7-4-2.7-6.4-3.2Z" fill="#1d1d1b" stroke="#1d1d1b" stroke-linecap="square" stroke-miterlimit="2" stroke-width="0"></path><path d="m144.24,37c.2,1-.1,2.1-.5,3-.3-.1-.8.2-1-.3.5-.9-.1-3,1.5-2.7Z" fill="#1d1d1b" stroke="#1d1d1b" stroke-linecap="square" stroke-miterlimit="2" stroke-width="0"></path><path d="m42.94,40.3c.2.5-.5.5-.8.5-.6-.8-.9-1.8-1.1-2.7,1.6-1.3,1.1,1.5,1.9,2.2Z" fill="#1d1d1b" stroke="#1d1d1b" stroke-linecap="square" stroke-miterlimit="2" stroke-width="0"></path><path d="m142.34,42.6c-.6.8-.8,1.8-1.7,2.4-.4,0-.6-.2-.9-.5l1.6-2.4c.4-.1.7.2,1,.5Z" fill="#1d1d1b" stroke="#1d1d1b" stroke-linecap="square" stroke-miterlimit="2" stroke-width="0"></path><path d="m46.14,45.5c-1.1,1.1-1.7-1-2.4-1.6-.3-.5.2-.7.5-.9.8.4,1.7,1.7,1.9,2.5Z" fill="#1d1d1b" stroke="#1d1d1b" stroke-linecap="square" stroke-miterlimit="2" stroke-width="0"></path><path d="m138.44,47.4l-2.1,2.1-.8-.8c.8-.3,2.1-3.2,2.9-1.3Z" fill="#1d1d1b" stroke="#1d1d1b" stroke-linecap="square" stroke-miterlimit="2" stroke-width="0"></path><path d="m50.34,49.2c0,.4-.3.6-.6.9-.8-.4-1.5-1.1-2.2-1.8l.6-1,2.2,1.9Z" fill="#1d1d1b" stroke="#1d1d1b" stroke-linecap="square" stroke-miterlimit="2" stroke-width="0"></path><path d="m134.04,51.1c-.5.8-1.6,1.2-2.4,1.7l-.6-.6c.5-.7,1.5-1.2,2.3-1.8.4,0,.4.5.7.7Z" fill="#1d1d1b" stroke="#1d1d1b" stroke-linecap="square" stroke-miterlimit="2" stroke-width="0"></path><path d="m54.94,53.2c-1-.2-1.9-.7-2.8-1.3l.5-1,2.7,1.3-.4,1Z" fill="#1d1d1b" stroke="#1d1d1b" stroke-linecap="square" stroke-miterlimit="2" stroke-width="0"></path><path d="m60.24,55.3c-1,.1-2-.5-2.9-.9l.5-1.1,2.6,1.1-.2.9Z" fill="#1d1d1b" stroke="#1d1d1b" stroke-linecap="square" stroke-miterlimit="2" stroke-width="0"></path><path d="m129.24,54c-.5.9-1.7,1-2.4,1.6l-.7-.7c.8-.5,2.3-2.2,3.1-.9Z" fill="#1d1d1b" stroke="#1d1d1b" stroke-linecap="square" stroke-miterlimit="2" stroke-width="0"></path><path d="m65.64,57c-1,.1-2.1-.3-3-.8l.3-.9,2.8.8-.1.9Z" fill="#1d1d1b" stroke="#1d1d1b" stroke-linecap="square" stroke-miterlimit="2" stroke-width="0"></path><path d="m124.04,56.8c-1,.1-2.6,1.8-3.1.3.5-.8,1.8-.8,2.6-1.3.3.2.6.6.5,1Z" fill="#1d1d1b" stroke="#1d1d1b" stroke-linecap="square" stroke-miterlimit="2" stroke-width="0"></path><path d="m71.54,57.4c-.1.4,0,.8-.4,1.1-.9-.5-2.1-.2-2.9-.8l.4-.9,2.9.6Z" fill="#1d1d1b" stroke="#1d1d1b" stroke-linecap="square" stroke-miterlimit="2" stroke-width="0"></path><path d="m118.54,58.3v.4l-2.9.5c-.3-.3-.2-.7-.2-1.1,1.1.3,2.6-1.1,3.1.2Z" fill="#1d1d1b" stroke="#1d1d1b" stroke-linecap="square" stroke-miterlimit="2" stroke-width="0"></path><path d="m.9,99.66c1.01,1.51,2.77,3.02,4.64,3.02,1.01,0,2.16-.61,2.16-1.8,0-.65-.22-1.12-.58-1.51-.32-.4-.76-.72-1.22-1.04-1.44-1.12-2.7-2.16-3.64-3.46-.9-1.26-1.48-2.77-1.48-4.75,0-3.17,2.02-8.93,8.28-8.93,1.76,0,3.67.54,5.22,1.37v8.24c-.86-1.37-2.63-2.92-4.32-2.92-.86,0-1.91.61-1.91,1.66,0,.58.32,1.08.72,1.51.4.43.94.79,1.33,1.12,1.55,1.08,2.77,2.09,3.6,3.31.86,1.22,1.33,2.66,1.33,4.72,0,5.04-3.53,9.07-8.64,9.07-1.87,0-3.78-.4-5.51-1.12v-8.5Z" fill="#909090"></path><path d="m29.04,108.8l-.54-3.49h-4.93l-.61,3.49h-7.56l6.52-27.14h8.96l5.76,27.14h-7.59Zm-1.4-9.25l-.79-6.3c-.22-1.69-.36-3.42-.54-5.11h-.07c-.22,1.69-.4,3.42-.68,5.11l-1.01,6.3h3.1Z" fill="#909090"></path><path d="m37.76,81.66h6.98l5.87,16.34.07-.07c-.29-3.13-.83-6.23-.83-9.36v-6.91h7.05v27.14h-7.05l-5.47-15.66-.07.07c.18,2.56.5,5.08.5,7.63v7.96h-7.06v-27.14Z" fill="#909090"></path><path d="m59.93,81.66h5.9c8.35,0,12.85,5.25,12.85,13.46,0,12.53-7.88,13.68-12.35,13.68h-6.41v-27.14Zm7.34,20.59c3.35-.04,3.92-4.21,3.92-6.77,0-2.95-.58-7.05-3.92-7.05v13.82Z" fill="#909090"></path><path d="m84.98,108.8l-6.23-27.14h7.7l1.73,11.16c.32,2.2.5,4.35.79,6.55h.07c.32-2.2.43-4.36.83-6.55l2.02-11.16h7.95l-7.38,27.14h-7.49Z" fill="#909090"></path><path d="m100.71,108.8v-27.14h7.34v27.14h-7.34Z" fill="#909090"></path><path d="m123.03,108.8l-4.57-12.46h.04-.07v12.46h-7.34v-27.14h7.34v11.55h-.04.04l-.07.07v-.07h.11l4.03-11.55h7.74l-5.87,13.1,6.55,14.04h-7.88Z" fill="#909090"></path><path d="m132.6,81.66h13.64v6.41h-6.3v3.78h5.65v6.41h-5.65v4.14h6.3v6.41h-13.64v-27.14Z" fill="#909090"></path><path d="m149.26,81.66h6.98l5.87,16.34.07-.07c-.29-3.13-.83-6.23-.83-9.36v-6.91h7.06v27.14h-7.06l-5.47-15.66-.07.07c.18,2.56.5,5.08.5,7.63v7.96h-7.05v-27.14Z" fill="#909090"></path><path d="m170.75,99.66c1.01,1.51,2.77,3.02,4.64,3.02,1.01,0,2.16-.61,2.16-1.8,0-.65-.21-1.12-.58-1.51-.32-.4-.76-.72-1.22-1.04-1.44-1.12-2.7-2.16-3.63-3.46-.9-1.26-1.48-2.77-1.48-4.75,0-3.17,2.01-8.93,8.28-8.93,1.76,0,3.67.54,5.22,1.37v8.24c-.86-1.37-2.63-2.92-4.32-2.92-.86,0-1.91.61-1.91,1.66,0,.58.32,1.08.72,1.51.4.43.94.79,1.33,1.12,1.55,1.08,2.77,2.09,3.6,3.31.86,1.22,1.33,2.66,1.33,4.72,0,5.04-3.53,9.07-8.64,9.07-1.87,0-3.78-.4-5.51-1.12v-8.5Z" fill="#909090"></path><path d="m5.26,152.8v-26.79H0v-8.65h20.35v8.65h-5.5v26.79H5.26Z" fill="#909090"></path><path d="m37.35,152.8l-5.31-14.76-.09.09c.05,1.74.14,3.48.14,5.22v9.45h-9.59v-35.44h9.26c8.32,0,14.33,2.44,14.33,11.8,0,3.9-1.69,7.38-5.5,8.88l7.14,14.76h-10.39Zm-4.65-19.03c2.54,0,3.9-2.21,3.9-4.51,0-3.1-1.88-4.42-4.51-4.28v8.74l.61.05Z" fill="#909090"></path><path d="m55.49,152.8v-15.04l-8.74-20.4h9.96l3.29,10.95h.09l3.34-10.95h9.92l-8.27,20.4v15.04h-9.59Z" fill="#909090"></path><path d="m94.02,127.75c-1.36-1.32-2.49-2.07-4.46-2.07-4.98,0-6.2,5.5-6.2,9.4,0,4.14,1.22,9.4,6.02,9.4,2.16,0,3.52-.85,5.08-2.26l-.56,9.92c-1.93.85-3.67,1.27-5.78,1.27-7.85,0-14.52-5.97-14.52-18.09,0-15.89,10.9-18.56,15.56-18.56,1.69,0,3.34.24,4.89.85v10.15Z" fill="#909090"></path><path d="m113.43,152.8l-5.97-16.26h.05-.09v16.26h-9.59v-35.44h9.59v15.09h-.05.05l-.09.09v-.09h.14l5.26-15.09h10.1l-7.66,17.11,8.55,18.33h-10.29Z" fill="#909090"></path><path d="m125.92,117.36h17.81v8.37h-8.22v4.93h7.38v8.37h-7.38v5.4h8.22v8.37h-17.81v-35.44Z" fill="#909090"></path><path d="m162.52,152.8l-5.31-14.76-.09.09c.05,1.74.14,3.48.14,5.22v9.45h-9.59v-35.44h9.26c8.32,0,14.33,2.44,14.33,11.8,0,3.9-1.69,7.38-5.5,8.88l7.14,14.76h-10.39Zm-4.65-19.03c2.54,0,3.9-2.21,3.9-4.51,0-3.1-1.88-4.42-4.51-4.28v8.74l.61.05Z" fill="#909090"></path><path d="m174.36,152.8v-35.44h9.59v35.44h-9.59Z" fill="#909090"></path></svg>