<?xml version="1.0" encoding="UTF-8"?>
<svg xmlns="http://www.w3.org/2000/svg" id="Layer_1" data-name="Layer 1" viewBox="0 0 344.83 62.28">
  <defs>
    <style>
      .cls-1 {
        fill: #101010;
      }
    </style>
  </defs>
  <g>
    <g>
      <path class="cls-1" d="M53.16,53.16c3.1-3.1,5.51-6.81,7.07-10.91,1.56-4.09,2.25-8.47,2-12.84l-16.41,16.41h0l-16.41,16.41c4.37.24,8.75-.44,12.84-2,4.09-1.56,7.81-3.97,10.91-7.07h0Z"></path>
      <path class="cls-1" d="M37.1,37.1l3.17-9.2c.77-2.24,2.04-4.27,3.71-5.94l10.93-10.93c2.96,3.5,5.11,7.62,6.3,12.05l-8.06,8.06c-1.67,1.67-3.7,2.94-5.94,3.71l-9.2,3.17h0l-3.17,9.2c-.77,2.24-2.04,4.27-3.71,5.94l-8.06,8.06c-4.43-1.19-8.54-3.34-12.05-6.3l10.93-10.93c1.67-1.67,3.7-2.94,5.94-3.71l9.2-3.17h0Z"></path>
    </g>
    <path class="cls-1" d="M25.17,25.17l9.2-3.17c2.24-.77,4.27-2.04,5.94-3.71l10.93-10.93c-3.5-2.96-7.62-5.11-12.05-6.3l-8.06,8.06c-1.67,1.67-2.94,3.7-3.71,5.94l-3.17,9.2h0l-9.2,3.17c-2.24.77-4.27,2.04-5.94,3.71L1.06,39.2c1.19,4.43,3.34,8.54,6.3,12.05l10.93-10.93c1.67-1.67,2.94-3.7,3.71-5.94l3.17-9.2h0Z"></path>
    <path class="cls-1" d="M9.12,9.12c3.1-3.1,6.81-5.51,10.91-7.07C24.12.49,28.49-.19,32.87.05l-16.41,16.41h0L.05,32.87c-.24-4.37.44-8.75,2-12.84,1.56-4.09,3.97-7.81,7.07-10.91h0Z"></path>
  </g>
  <g>
    <path class="cls-1" d="M306.12,51.9h8.72v-18.99l17.84,18.95h12.15l-21.24-22.1,19.68-19.44h-12.69l-15.76,16.82V10.36h-8.72v41.54h0Z"></path>
    <path class="cls-1" d="M298.92,10.36h-8.72v41.54h8.72V10.36Z"></path>
    <path class="cls-1" d="M246.25,10.36l13.71,41.53h13.38l13.71-41.53h-9.25l-11.13,34.46-11.17-34.46h-9.25Z"></path>
    <path class="cls-1" d="M228.37,10.36h-18.33v41.54h18.25c12.48,0,18.13-7.49,18.13-20.63s-5.57-20.91-18.05-20.91h0ZM228.37,44.86h-9.62v-27.5h9.62c6.71,0,9.25,4.62,9.25,13.91s-2.58,13.59-9.25,13.59Z"></path>
    <path class="cls-1" d="M166.25,51.9h8.51V16.95l16.08,34.95h12.2V10.36h-8.51v31.43l-14.28-31.43h-14v41.54Z"></path>
    <path class="cls-1" d="M82.93,36.96c-.33,11.54,7.08,15.63,19.32,15.63,10.35,0,18.25-3.77,18.25-13.83,0-9-6.75-10.68-14.24-11.42l-7.61-.7c-4.58-.41-6.22-1.8-6.22-5.24,0-4.09,2.86-6.02,8.88-6.02s9.62,2.09,9.7,8.02h9.13c0-9.62-4.5-14.2-18.99-14.2-11.62,0-18.09,4.38-18.09,12.85,0,7.9,5.36,10.68,12.73,11.42l8.39.82c5.97.61,7.2,2.25,7.2,5.28,0,5.03-2.86,6.55-9.13,6.55-8.47,0-9.82-4.21-9.74-9.17h-9.58Z"></path>
    <path class="cls-1" d="M149.23,10.36h-14.08l-14.2,41.53h8.96l3.27-9.58h18.09l3.23,9.58h9l-14.28-41.53h0ZM135.68,35.08l6.59-19.15,6.51,19.15h-13.09Z"></path>
  </g>
</svg>
