<svg xmlns="http://www.w3.org/2000/svg" xmlns:xlink="http://www.w3.org/1999/xlink" width="291.391" height="47.537" viewBox="0 0 291.391 47.537"><defs><clipPath id="clip-path"><rect id="Rectangle_1625" data-name="Rectangle 1625" width="291.391" height="47.537" fill="none"></rect></clipPath></defs><g id="Group_1150" data-name="Group 1150" transform="translate(0 0)"><g id="Group_1149" data-name="Group 1149" transform="translate(0 0)" clip-path="url(#clip-path)"><path id="Path_526" data-name="Path 526" d="M33.363,50.517s.7-.051.7-.686l0-14.83c0-.646-.686-.652-.686-.652H26.808a.707.707,0,0,1-.694-.695V20.578c0-.613.694-.691.694-.691H54.738a.692.692,0,0,1,.684.691V33.7c0,.556-.648.645-.648.645l-6.592-.01a.675.675,0,0,0-.681.687l0,14.81c0,.636.7.686.7.686Z" transform="translate(-4.364 -3.323)" fill="#e1001e"></path><path id="Path_527" data-name="Path 527" d="M104.981,37.678c0-1.034-.04-1.034-.835-1.034h-1.234c-2.428,0-3.463.239-4.419,2.985a.687.687,0,0,1-.994-.2c.438-1.713.875-3.7,1.074-4.7a.6.6,0,0,1,.716,0c.04.8.6.756,2.189.756h11.066c1.473,0,1.752-.039,2.07-.756a.532.532,0,0,1,.717.12,16.624,16.624,0,0,0-.4,4.658.639.639,0,0,1-1,.039c-.279-2.586-1.313-2.905-3.7-2.905h-1.353c-.756,0-.876,0-.876,1.034V48.584c0,2.748.159,2.985,1.871,3.185l1.075.119c.278.2.239.876-.08,1-1.632-.08-3.144-.119-4.379-.119-1.274,0-2.707.039-4.378.119-.319-.119-.359-.8-.08-1l1.074-.119c1.712-.2,1.871-.437,1.871-3.185Z" transform="translate(-16.292 -5.784)" fill="#0e0e0d"></path><path id="Path_528" data-name="Path 528" d="M132.018,43.2c0,1,.04,1,1.991,1,2.587,0,3.94-1.035,3.94-3.782,0-1.99-1.393-3.742-4.179-3.742-1.473,0-1.752.08-1.752,1.116ZM128.993,40.3c0-2.586-.039-3.263-.955-3.383l-1.115-.16c-.318-.039-.4-.875,0-.994,2.19-.16,4.419-.239,6.607-.239,3.7,0,7.722.6,7.722,4.776,0,2.548-1.99,3.7-3.542,4.259a.479.479,0,0,0,0,.6,24.143,24.143,0,0,0,5.056,6.369,3.568,3.568,0,0,0,2.109.835.481.481,0,0,1,0,.636,5.521,5.521,0,0,1-1.672.2c-2.388,0-3.821-.756-5.572-2.985-1-1.274-2.07-3.025-2.906-4.3a1.85,1.85,0,0,0-1.593-.636c-1.034,0-1.114.079-1.114.636v2.826c0,2.748.159,2.946,1.871,3.185l.916.119c.278.2.238.876-.08,1-1.672-.08-2.985-.119-4.219-.119-1.273,0-2.507.039-3.9.119a.581.581,0,0,1-.08-1l.6-.119c1.712-.358,1.871-.437,1.871-3.185Z" transform="translate(-21.101 -5.936)" fill="#0e0e0d"></path><path id="Path_529" data-name="Path 529" d="M158.1,47.622c0-1.233-.119-1.552-1.114-3.383l-2.906-5.374c-.835-1.591-1.234-1.95-2.268-2.149l-1.035-.2a.664.664,0,0,1,.12-1c1.313.079,2.229.118,3.661.118,1.194,0,2.11-.039,3.383-.118a.6.6,0,0,1,.04,1l-.557.119c-.875.2-1,.437-.358,1.672l1.473,2.826c.6,1.194,1.194,2.27,1.792,3.3.636-1.075,1.234-2.031,1.91-3.3l1.593-2.905c.6-1.114.676-1.474-.278-1.593l-.836-.119a.581.581,0,0,1,.08-1c1.194.079,2.109.118,3.024.118.876,0,1.712-.039,2.826-.118a.638.638,0,0,1,.08,1l-.955.2c-1.234.239-1.433.478-2.667,2.468l-2.467,3.98c-1.433,2.27-1.513,2.667-1.513,3.821v2.149c0,2.35.16,2.587,1.871,2.787l1,.119c.279.2.239.876-.079,1-1.752-.08-3.065-.119-4.3-.119-1.273,0-2.507.039-4.3.119-.318-.119-.358-.8-.08-1l1-.119c1.712-.2,1.871-.437,1.871-2.787Z" transform="translate(-25.166 -5.936)" fill="#0e0e0d"></path><path id="Path_530" data-name="Path 530" d="M192.8,35.752a35.848,35.848,0,0,0,.358,4.378.677.677,0,0,1-1.034.08c-.6-2.19-1.951-4.06-5.533-4.06-3.424,0-6.806,2.308-6.806,7.722,0,5.334,3.422,8.36,7.165,8.36a6.213,6.213,0,0,0,5.73-4.021.615.615,0,0,1,1.035.041,11.652,11.652,0,0,1-1.313,4.3,21.368,21.368,0,0,1-5.373.836,12.18,12.18,0,0,1-7.006-1.83,8.452,8.452,0,0,1-3.781-7.086,8.742,8.742,0,0,1,3.343-7.165A12.655,12.655,0,0,1,187.344,35a29.461,29.461,0,0,1,5.455.756" transform="translate(-29.449 -5.848)" fill="#0e0e0d"></path><path id="Path_531" data-name="Path 531" d="M206.525,39.82c0-2.746-.159-2.864-1.871-3.183l-.6-.119c-.278-.2-.239-.877.08-1,1.394.08,2.627.118,3.9.118s2.509-.038,3.981-.118a.6.6,0,0,1,.041,1l-.8.119c-1.552.239-1.711.437-1.711,3.183V42.05c0,.8,0,1.274.2,1.393a1.41,1.41,0,0,0,1.075-.24,48.764,48.764,0,0,0,4.817-4.856c.835-.955.915-1.472.317-1.632l-.875-.2c-.357-.159-.318-.915.08-1,1.114.08,2.27.118,3.543.118,1.114,0,2.03-.038,3.343-.118a.6.6,0,0,1,.079,1,12.011,12.011,0,0,0-2.707.756,15.141,15.141,0,0,0-3.7,2.985l-1.832,1.751c-.8.8-.756.916-.16,1.632l4.977,5.972c1.433,1.712,2.03,2.188,3.781,2.388l.558.039a.639.639,0,0,1-.08,1c-1.234-.08-2.151-.118-3.9-.118-1.314,0-2.589,0-3.9.118a.625.625,0,0,1-.159-1l.558-.08c.914-.118,1.074-.358.476-1.074l-3.582-4.339c-.319-.4-1.472-2.11-2.229-2.11-.676,0-.676.4-.676,1.513v2.785c0,2.748.159,2.907,1.871,3.185l.756.119c.278.2.239.877-.08,1-1.513-.08-2.825-.118-4.06-.118-1.274,0-2.506.038-3.781.118-.318-.118-.357-.8-.079-1l.476-.119c1.672-.4,1.871-.437,1.871-3.185Z" transform="translate(-34.066 -5.936)" fill="#0e0e0d"></path><path id="Path_532" data-name="Path 532" d="M235.5,39.82c0-2.746-.159-2.864-1.671-3.183l-.558-.119a.669.669,0,0,1,.08-1q1.733.12,3.7.118h5.651a33.906,33.906,0,0,0,3.7-.118c.039.478.239,2.347.437,4.06a.711.711,0,0,1-1.034.08,5.551,5.551,0,0,0-.717-1.912c-.636-.955-2.427-.955-3.384-.955h-1.75c-1.394,0-1.433.039-1.433,1.274v4.419c0,.715,0,.8.756.8h1.871c2.11,0,2.309-.319,2.627-1.513l.2-.755a.669.669,0,0,1,1,.077c-.08,1.155-.08,1.871-.08,2.787,0,1,0,1.712.08,2.866a.67.67,0,0,1-1,.08l-.2-.756c-.318-1.194-.517-1.513-2.627-1.513h-1.871c-.756,0-.756.121-.756.916V48.34a5.888,5.888,0,0,0,.437,2.864c.358.4,1.075.558,3.343.558,2.547,0,4.021-.119,5.175-3.3a.681.681,0,0,1,1.034.16,14.612,14.612,0,0,1-1.194,4.418c-2.506-.08-4.617-.118-6.766-.118h-3.5c-1.274,0-2.508.038-4.418.118-.319-.118-.36-.8-.08-1l1.074-.119c1.712-.2,1.871-.437,1.871-3.185Z" transform="translate(-38.829 -5.936)" fill="#0e0e0d"></path><path id="Path_533" data-name="Path 533" d="M264.22,43.2c0,1,.041,1,1.991,1,2.587,0,3.94-1.035,3.94-3.782,0-1.99-1.393-3.742-4.18-3.742-1.472,0-1.752.08-1.752,1.116ZM261.2,40.3c0-2.586-.041-3.263-.954-3.383l-1.114-.16c-.319-.039-.4-.875,0-.994,2.188-.16,4.418-.239,6.606-.239,3.7,0,7.723.6,7.723,4.776,0,2.548-1.99,3.7-3.542,4.259a.475.475,0,0,0,0,.6,24.164,24.164,0,0,0,5.054,6.369,3.568,3.568,0,0,0,2.11.835.481.481,0,0,1,0,.636,5.518,5.518,0,0,1-1.672.2c-2.389,0-3.821-.756-5.572-2.985-1-1.274-2.071-3.025-2.907-4.3a1.846,1.846,0,0,0-1.591-.636c-1.034,0-1.116.079-1.116.636v2.826c0,2.748.159,2.946,1.872,3.185l.915.119c.279.2.239.876-.08,1-1.671-.08-2.985-.119-4.219-.119-1.273,0-2.508.039-3.9.119a.581.581,0,0,1-.08-1l.6-.119c1.712-.358,1.871-.437,1.871-3.185Z" transform="translate(-43.192 -5.936)" fill="#0e0e0d"></path><path id="Path_534" data-name="Path 534" d="M289.329,39.82c0-2.746-.159-2.905-1.871-3.183l-.756-.119c-.278-.2-.239-.877.079-1,1.553.08,2.787.118,4.06.118s2.507-.038,4.059-.118c.319.118.36.8.08,1l-.755.119c-1.713.278-1.871.437-1.871,3.183v8.916c0,2.748.157,2.907,1.871,3.185l.755.119c.28.2.239.877-.08,1-1.511-.08-2.825-.118-4.059-.118-1.274,0-2.508.038-4.06.118-.318-.118-.357-.8-.079-1l.756-.119c1.712-.278,1.871-.437,1.871-3.185Z" transform="translate(-47.876 -5.936)" fill="#0e0e0d"></path><path id="Path_535" data-name="Path 535" d="M306.934,39.82c0-2.746-.16-2.864-1.672-3.183l-.559-.119a.671.671,0,0,1,.08-1q1.733.12,3.7.118h5.651a33.855,33.855,0,0,0,3.7-.118c.039.478.24,2.347.437,4.06a.709.709,0,0,1-1.034.08,5.548,5.548,0,0,0-.718-1.912c-.635-.955-2.427-.955-3.382-.955h-1.752c-1.393,0-1.433.039-1.433,1.274v4.419c0,.715,0,.8.756.8h1.871c2.109,0,2.309-.319,2.628-1.513l.2-.755a.668.668,0,0,1,.994.077c-.079,1.155-.079,1.871-.079,2.787,0,1,0,1.712.079,2.866a.668.668,0,0,1-.994.08l-.2-.756c-.319-1.194-.519-1.513-2.628-1.513h-1.871c-.756,0-.756.121-.756.916V48.34A5.878,5.878,0,0,0,310.4,51.2c.36.4,1.074.558,3.344.558,2.548,0,4.02-.119,5.176-3.3a.681.681,0,0,1,1.034.16,14.732,14.732,0,0,1-1.2,4.418c-2.507-.08-4.618-.118-6.767-.118h-3.5c-1.273,0-2.509.038-4.419.118-.319-.118-.358-.8-.079-1l1.074-.119c1.712-.2,1.872-.437,1.872-3.185Z" transform="translate(-50.765 -5.936)" fill="#0e0e0d"></path><path id="Path_536" data-name="Path 536" d="M334.993,37.678c0-1.034-.039-1.034-.836-1.034h-1.233c-2.429,0-3.463.239-4.419,2.985a.688.688,0,0,1-1-.2c.437-1.713.875-3.7,1.075-4.7a.6.6,0,0,1,.715,0c.041.8.6.756,2.19.756h11.065c1.473,0,1.752-.039,2.071-.756a.531.531,0,0,1,.716.12,16.651,16.651,0,0,0-.4,4.658c-.159.317-.836.358-.994.039-.28-2.586-1.314-2.905-3.7-2.905h-1.353c-.757,0-.875,0-.875,1.034V48.584c0,2.748.159,2.985,1.871,3.185l1.074.119c.28.2.239.876-.078,1-1.633-.08-3.146-.119-4.379-.119-1.273,0-2.707.039-4.379.119-.317-.119-.358-.8-.08-1l1.075-.119c1.712-.2,1.871-.437,1.871-3.185Z" transform="translate(-54.726 -5.784)" fill="#0e0e0d"></path><path id="Path_537" data-name="Path 537" d="M113.882,6.774c0-3.98-.239-4.976-1.712-5.135L110.9,1.52a.667.667,0,0,1,.079-1c1.473.08,2.389.12,3.543.12s2.03-.04,3.3-.12a.665.665,0,0,1,.04,1l-1.194.119c-1.034.12-1.353,1.194-1.353,5.135v6.687c0,.8,0,4.02.119,4.617a.782.782,0,0,1-.836.359c-.438-.558-1.234-1.393-3.7-4.06l-6.05-6.448c-1.513-1.593-2.548-2.627-3.065-3.065-.159,0-.159.438-.159,1.672v5.254c0,3.98.238,5.016,1.712,5.135l1.274.12a.64.64,0,0,1-.079,1c-1.473-.08-2.389-.12-3.543-.12s-1.911.04-3.3.12a.666.666,0,0,1-.041-1l1.2-.12c1.034-.119,1.353-1.194,1.353-5.135V4.665c0-1.313-.039-1.871-.835-2.468a4.727,4.727,0,0,0-1.473-.557l-.6-.119a.638.638,0,0,1,.08-1c1.512.12,2.586.12,3.422.12a9.928,9.928,0,0,0,1.593-.12,23.553,23.553,0,0,0,3.9,4.9l3.741,3.86c.876.875,3.185,3.383,3.622,3.7.239-.079.239-.636.239-1.592Z" transform="translate(-16.223 -0.088)" fill="#0e0e0d"></path><path id="Path_538" data-name="Path 538" d="M131.737,8.716c0,4.1,1.871,8.518,6.488,8.518,3.025,0,5.931-2.07,5.931-7.523,0-4.259-2.03-8.558-6.408-8.558-2.866,0-6.011,1.951-6.011,7.563m15.962.4c0,5.374-4.06,9.274-9.672,9.274-6.17,0-9.832-4.02-9.832-9.035C128.2,4.06,132.255,0,138.027,0c6.408,0,9.672,4.259,9.672,9.114" transform="translate(-21.421 0)" fill="#0e0e0d"></path><path id="Path_539" data-name="Path 539" d="M162.54,8.208c0,.994.04.994,1.991.994,2.587,0,3.94-1.034,3.94-3.781,0-1.991-1.393-3.742-4.179-3.742-1.473,0-1.752.08-1.752,1.114ZM159.515,5.3c0-2.587-.04-3.264-.955-3.383l-1.114-.159c-.318-.04-.4-.876,0-1,2.19-.159,4.419-.239,6.607-.239,3.7,0,7.722.6,7.722,4.777,0,2.548-1.99,3.7-3.542,4.259a.479.479,0,0,0,0,.6,24.162,24.162,0,0,0,5.055,6.369,3.572,3.572,0,0,0,2.11.835.484.484,0,0,1,0,.637,5.575,5.575,0,0,1-1.671.2c-2.389,0-3.822-.756-5.573-2.985-1-1.274-2.07-3.025-2.906-4.3a1.848,1.848,0,0,0-1.592-.636c-1.034,0-1.114.079-1.114.636V13.74c0,2.747.159,2.946,1.871,3.184l.916.12c.278.2.238.875-.08,1-1.672-.08-2.985-.12-4.219-.12-1.273,0-2.508.04-3.9.12a.581.581,0,0,1-.08-1l.6-.12c1.712-.358,1.871-.437,1.871-3.184Z" transform="translate(-26.201 -0.088)" fill="#0e0e0d"></path><path id="Path_540" data-name="Path 540" d="M190.167,8.208c0,.994.039.994,1.991.994,2.587,0,3.94-1.034,3.94-3.781,0-1.991-1.392-3.742-4.179-3.742-1.474,0-1.752.08-1.752,1.114ZM187.142,5.3c0-2.587-.039-3.264-.955-3.383l-1.114-.159c-.32-.04-.4-.876,0-1C187.262.6,189.49.525,191.68.525c3.7,0,7.722.6,7.722,4.777,0,2.548-1.991,3.7-3.543,4.259a.479.479,0,0,0,0,.6,24.125,24.125,0,0,0,5.057,6.369,3.564,3.564,0,0,0,2.108.835.484.484,0,0,1,0,.637,5.577,5.577,0,0,1-1.672.2c-2.388,0-3.82-.756-5.572-2.985-1-1.274-2.07-3.025-2.906-4.3a1.846,1.846,0,0,0-1.592-.636c-1.034,0-1.114.079-1.114.636V13.74c0,2.747.16,2.946,1.871,3.184l.917.12c.277.2.239.875-.081,1-1.672-.08-2.985-.12-4.22-.12-1.273,0-2.505.04-3.9.12a.581.581,0,0,1-.079-1l.6-.12c1.714-.358,1.872-.437,1.872-3.184Z" transform="translate(-30.818 -0.088)" fill="#0e0e0d"></path><path id="Path_541" data-name="Path 541" d="M222.9,10.915a26.628,26.628,0,0,0,1.432,2.429,18.287,18.287,0,0,0,1.633-2.787l1.989-3.821A32.861,32.861,0,0,0,230.7.526c.877.08,1.672.119,2.31.119.955,0,2.11-.039,3.263-.119a.643.643,0,0,1,.12,1l-.877.119c-1.83.239-1.91,1-1.91,3.343,0,4.219,0,7.6.2,9.991.079.875.079,1.831,1.314,1.95l1.154.119a.668.668,0,0,1-.039,1c-1.433-.08-2.987-.12-3.981-.12-1.154,0-2.388.04-3.5.12-.28-.2-.318-.836-.04-1l.875-.119c1.274-.159,1.274-.477,1.274-2.07V5.661c0-.478,0-1.075-.119-1.154a29.217,29.217,0,0,0-1.712,3.025L226.6,12.109c-.318.6-2.388,4.737-2.825,6.01a.658.658,0,0,1-.756,0,41.963,41.963,0,0,0-2.35-5.294L218.085,7.81c-.438-.875-1.273-2.985-1.592-3.1a29.506,29.506,0,0,0-.239,3.98c-.039,1.592-.08,3.264-.08,5.215,0,2.029.041,2.905,1.155,3.024l1.313.119c.28.16.239.836-.039,1-1.034-.08-2.19-.12-3.263-.12-.877,0-2.071.04-3.3.12a.664.664,0,0,1,0-1l.836-.119c1.313-.2,1.432-.6,1.632-1.99.317-2.15.556-8.558.556-11.265,0-1.274-.437-1.871-1.791-2.03l-.955-.119c-.239-.2-.278-.836.08-1,1.075.08,1.989.119,3.064.119a27.939,27.939,0,0,0,2.906-.119c0,1.751.717,3.025,2.071,5.652Z" transform="translate(-35.393 -0.088)" fill="#0e0e0d"></path><path id="Path_542" data-name="Path 542" d="M257.533,10.4c1.034,0,1.155-.08.718-1.234l-1.235-3.384a7.627,7.627,0,0,0-.6-1.433A4.034,4.034,0,0,0,255.7,5.7l-1.433,3.542c-.436,1.074-.357,1.154.518,1.154Zm-3.144,1.274c-.917,0-1.035.04-1.353.955l-.915,2.548c-.438,1.274-.317,1.433.438,1.592l1.074.2c.32.2.28.916-.118,1-1-.079-2.031-.119-3.145-.119s-2.07.079-2.786.119a.64.64,0,0,1-.081-1l.917-.2c1.234-.278,1.672-.716,2.467-2.627l3.822-9.154a12.581,12.581,0,0,0,1.034-3.343A3.493,3.493,0,0,0,257.415.132c.319-.119.556-.04.635.2.159.4.8,2.468,1.712,4.9l3.584,9.513c.476,1.313.834,1.831,2.268,2.11l.636.119a.581.581,0,0,1-.119,1c-1.036-.079-1.951-.119-3.3-.119-1.433,0-2.589.04-3.584.119a.582.582,0,0,1-.081-1l.8-.119c1.034-.159.993-.4.516-1.632l-.954-2.587c-.319-.915-.44-.955-1.353-.955Z" transform="translate(-41.324 -0.013)" fill="#0e0e0d"></path><path id="Path_543" data-name="Path 543" d="M279.064,4.825c0-2.746-.159-2.905-1.872-3.184l-.755-.119c-.28-.2-.239-.876.079-1,1.553.08,2.785.119,4.059.119S283.084.606,284.4.526c.319.119.36.8.08,1l-.517.119c-1.673.4-1.871.438-1.871,3.184v8.558a5.194,5.194,0,0,0,.437,2.747c.358.358,1,.636,3.065.636,2.429,0,3.9-.119,5.056-3.3a.68.68,0,0,1,1.034.159,14.7,14.7,0,0,1-1.194,4.419c-2.509-.08-4.617-.12-6.647-.12h-3.265c-1.273,0-2.506.04-4.059.12-.318-.12-.359-.8-.079-1l.755-.119c1.713-.278,1.872-.437,1.872-3.184Z" transform="translate(-46.161 -0.088)" fill="#0e0e0d"></path><path id="Path_544" data-name="Path 544" d="M310.84,10.915a26.631,26.631,0,0,0,1.432,2.429,18.286,18.286,0,0,0,1.633-2.787l1.989-3.821A32.862,32.862,0,0,0,318.64.526c.877.08,1.672.119,2.31.119.954,0,2.11-.039,3.263-.119a.643.643,0,0,1,.12,1l-.877.119c-1.83.239-1.91,1-1.91,3.343,0,4.219,0,7.6.2,9.991.079.875.079,1.831,1.314,1.95l1.154.119a.668.668,0,0,1-.039,1c-1.433-.08-2.987-.12-3.981-.12-1.154,0-2.388.04-3.5.12-.28-.2-.318-.836-.04-1l.875-.119c1.274-.159,1.274-.477,1.274-2.07V5.661c0-.478,0-1.075-.119-1.154a29.379,29.379,0,0,0-1.712,3.025l-2.429,4.578c-.318.6-2.388,4.737-2.825,6.01a.658.658,0,0,1-.756,0,41.956,41.956,0,0,0-2.35-5.294L306.023,7.81c-.438-.875-1.274-2.985-1.593-3.1a29.3,29.3,0,0,0-.237,3.98c-.041,1.592-.082,3.264-.082,5.215,0,2.029.041,2.905,1.155,3.024l1.314.119c.278.16.237.836-.041,1-1.034-.08-2.19-.12-3.263-.12-.877,0-2.071.04-3.3.12a.664.664,0,0,1,0-1l.836-.119c1.313-.2,1.432-.6,1.632-1.99.319-2.15.556-8.558.556-11.265,0-1.274-.436-1.871-1.79-2.03l-.955-.119c-.239-.2-.278-.836.08-1,1.075.08,1.989.119,3.065.119A27.916,27.916,0,0,0,306.3.526c0,1.751.717,3.025,2.071,5.652Z" transform="translate(-50.087 -0.088)" fill="#0e0e0d"></path><path id="Path_545" data-name="Path 545" d="M339.692,9.712c-1.91-1-3.543-2.548-3.543-4.777,0-2.906,2.23-4.936,6.25-4.936a19.464,19.464,0,0,1,3.7.6,10.117,10.117,0,0,1,.556,3.9c-.118.319-.836.359-1.034.08-.319-1.393-1.353-3.423-3.7-3.423S338.7,2.508,338.7,3.861c0,1.433,1.075,2.309,2.668,3.144l2.468,1.274a5.681,5.681,0,0,1,3.224,5.056c0,3.1-2.548,5.055-6.489,5.055a8.169,8.169,0,0,1-4.578-1.234,8.38,8.38,0,0,1-.835-4.1.612.612,0,0,1,1.034-.079c.319,1.433,2.069,4.259,4.737,4.259,2.029,0,3.343-1.034,3.343-2.866,0-1.274-.517-2.587-2.787-3.741Z" transform="translate(-56.004 0)" fill="#0e0e0d"></path><rect id="Rectangle_1624" data-name="Rectangle 1624" width="210.4" height="1.458" transform="translate(80.99 22.472)" fill="#e1001e"></rect><path id="Path_546" data-name="Path 546" d="M.7,47.248S0,47.2,0,46.56V31.282s.052-.69.691-.69H6.478s.644-.083.644-.649V17.709s-.147-.621-.659-.621H.73S.04,17.043.04,16.4V.962A.717.717,0,0,1,.73.316H54.7s11.016-.2,11.016,8.046v21.63a.737.737,0,0,0,.69.63h5.721s.692.072.692.685V46.56s-.052.688-.692.688l-28.769,0s-.7-.05-.7-.686l0-15.284a.675.675,0,0,1,.681-.686l6.592.01s.648-.088.648-.646V17.78a.693.693,0,0,0-.684-.692H22.916s-.694.079-.694.692V29.912a.705.705,0,0,0,.694.693h6.567s.686.007.686.654l0,15.3c0,.636-.7.686-.7.686Z" transform="translate(0 -0.053)" fill="#0e0e0d"></path></g></g></svg>