<?xml version="1.0" encoding="UTF-8"?>
<svg xmlns="http://www.w3.org/2000/svg" id="Lager_1" viewBox="0 0 437.14 281.74">
  <path d="m174.09,281.73s4.18-.3,4.18-4.12v-89.02c.01-3.88-4.11-3.92-4.11-3.92h-39.42c-3.99,0-4.17-4.17-4.17-4.17v-78.49c0-3.68,4.17-4.15,4.17-4.15h167.67c3.99,0,4.11,4.15,4.11,4.15v78.76c0,3.34-3.89,3.88-3.89,3.88l-39.57-.06c-4.06,0-4.09,4.12-4.09,4.12l-.03,88.91c0,3.82,4.18,4.12,4.18,4.12h-89.03Z" fill="#e6000e"></path>
  <path d="m4.18,281.74s-4.18-.31-4.18-4.13v-91.72s.32-4.14,4.15-4.14h34.74s3.86-.5,3.86-3.9v-73.44s-.88-3.73-3.95-3.73H4.38s-4.14-.27-4.14-4.11V3.88S.69,0,4.38,0h323.99s66.13-1.21,66.13,48.3v129.85s.61,3.78,4.14,3.78h34.35s4.15.43,4.15,4.11v91.57s-.31,4.13-4.15,4.13h-172.71s-4.18-.31-4.18-4.13l.03-91.75s.03-4.12,4.09-4.12l39.57.06s3.89-.53,3.89-3.88v-73.08s-.12-4.15-4.11-4.15h-162s-4.17.47-4.17,4.15v72.83s.18,4.16,4.17,4.16h39.42s4.12.05,4.12,3.93v91.86c-.01,3.82-4.19,4.12-4.19,4.12H4.18Z" fill="#12120d"></path>
</svg>
