<svg xmlns="http://www.w3.org/2000/svg" id="Layer_1" viewBox="0 0 24 24"><path d="M15.57,20.47h-7.14c-1.18,0-2.14-.96-2.14-2.14V5.48c0-1.18.96-2.14,2.14-2.14h7.14c1.18,0,2.14.96,2.14,2.14v12.85c0,1.18-.96,2.14-2.14,2.14ZM8.43,4.76c-.39,0-.71.32-.71.71v12.85c0,.39.32.71.71.71h7.14c.39,0,.71-.32.71-.71V5.48c0-.39-.32-.71-.71-.71h-7.14Z"></path><path d="M10.57,10.48c-1.18,0-2.14-.96-2.14-2.14s.96-2.14,2.14-2.14,2.14.96,2.14,2.14-.96,2.14-2.14,2.14ZM10.57,7.62c-.39,0-.71.32-.71.71s.32.71.71.71.71-.32.71-.71-.32-.71-.71-.71Z"></path><path d="M8.46,20.12c-.18,0-.37-.07-.51-.21-.28-.28-.28-.73,0-1.01l4.27-4.25c.88-.86,2.31-.86,3.18,0l2.07,1.9c.29.27.31.72.04,1.01-.27.29-.72.31-1.01.04l-2.08-1.92c-.34-.34-.87-.34-1.2-.02l-4.27,4.24c-.14.14-.32.21-.5.21Z"></path></svg>