<svg xmlns="http://www.w3.org/2000/svg" id="Layer_1" viewBox="0 0 24 24"><path d="M18,23H6c-1.65,0-3-1.35-3-3V4c0-1.65,1.35-3,3-3h9c.27,0,.52.11.71.29l5,5c.19.19.29.44.29.71v13c0,1.65-1.35,3-3,3ZM6,3c-.55,0-1,.45-1,1v16c0,.55.45,1,1,1h12c.55,0,1-.45,1-1V7.41l-4.41-4.41H6Z"></path><path d="M19,8h-4c-1.1,0-2-.9-2-2V2c0-.55.45-1,1-1s1,.45,1,1v4h4c.55,0,1,.45,1,1s-.45,1-1,1Z"></path><path d="M16,14h-8c-.55,0-1-.45-1-1s.45-1,1-1h8c.55,0,1,.45,1,1s-.45,1-1,1Z"></path><path d="M12,18h-4c-.55,0-1-.45-1-1s.45-1,1-1h4c.55,0,1,.45,1,1s-.45,1-1,1Z"></path></svg>