<svg xmlns="http://www.w3.org/2000/svg" id="Layer_1" viewBox="0 0 24 24"><path d="M19,23H6.5c-1.93,0-3.5-1.57-3.5-3.5h0V4.5c0-1.93,1.57-3.5,3.5-3.5h12.5c1.1,0,2,.9,2,2v18c0,1.1-.9,2-2,2ZM5,19.5c0,.83.67,1.5,1.5,1.5h12.5v-3H6.5c-.83,0-1.5.67-1.5,1.5ZM6.5,3c-.83,0-1.5.67-1.5,1.5v11.84c.46-.22.96-.34,1.5-.34h12.5V3H6.5Z"></path><path d="M16,8h-8c-.55,0-1-.45-1-1s.45-1,1-1h8c.55,0,1,.45,1,1s-.45,1-1,1Z"></path><path d="M13,12h-5c-.55,0-1-.45-1-1s.45-1,1-1h5c.55,0,1,.45,1,1s-.45,1-1,1Z"></path></svg>