<svg xmlns="http://www.w3.org/2000/svg" id="Layer_1" viewBox="0 0 24 24"><path d="M20,21H4c-1.65,0-3-1.35-3-3V6c0-1.65,1.35-3,3-3h16c1.65,0,3,1.35,3,3v12c0,1.65-1.35,3-3,3ZM4,5c-.55,0-1,.45-1,1v12c0,.55.45,1,1,1h16c.55,0,1-.45,1-1V6c0-.55-.45-1-1-1H4Z"></path><path d="M9,7c-.55,0-1-.45-1-1v-2c0-.55.45-1,1-1s1,.45,1,1v2c0,.55-.45,1-1,1Z"></path><path d="M9,11.64c-.55,0-1-.45-1-1v-1c0-.55.45-1,1-1s1,.45,1,1v1c0,.55-.45,1-1,1Z"></path><path d="M9.02,16.27c-.55,0-1-.45-1-1v-1c0-.55.45-1,1-1s1,.45,1,1v1c0,.55-.45,1-1,1Z"></path><path d="M9,21c-.55,0-1-.45-1-1v-1.85c0-.55.45-1,1-1s1,.45,1,1v1.85c0,.55-.45,1-1,1Z"></path><path d="M15,7c-.55,0-1-.45-1-1v-2c0-.55.45-1,1-1s1,.45,1,1v2c0,.55-.45,1-1,1Z"></path><path d="M15,11.64c-.55,0-1-.45-1-1v-1c0-.55.45-1,1-1s1,.45,1,1v1c0,.55-.45,1-1,1Z"></path><path d="M15,16.27c-.55,0-1-.45-1-1v-1c0-.55.45-1,1-1s1,.45,1,1v1c0,.55-.45,1-1,1Z"></path><path d="M15,21c-.55,0-1-.45-1-1v-1.85c0-.55.45-1,1-1s1,.45,1,1v1.85c0,.55-.45,1-1,1Z"></path></svg>