<svg xmlns="http://www.w3.org/2000/svg" id="Layer_1" viewBox="0 0 24 24"><path d="M20,22H4c-1.65,0-3-1.35-3-3V5c0-1.65,1.35-3,3-3h16c1.65,0,3,1.35,3,3v14c0,1.65-1.35,3-3,3ZM4,4c-.55,0-1,.45-1,1v14c0,.55.45,1,1,1h16c.55,0,1-.45,1-1V5c0-.55-.45-1-1-1H4Z"></path><path d="M12,6c-.55,0-1-.45-1-1v-2c0-.55.45-1,1-1s1,.45,1,1v2c0,.55-.45,1-1,1Z"></path><path d="M12,10.93c-.55,0-1-.45-1-1v-1c0-.55.45-1,1-1s1,.45,1,1v1c0,.55-.45,1-1,1Z"></path><path d="M12,15.86c-.55,0-1-.45-1-1v-1c0-.55.45-1,1-1s1,.45,1,1v1c0,.55-.45,1-1,1Z"></path><path d="M12,22c-.55,0-1-.45-1-1v-2.85c0-.55.45-1,1-1s1,.45,1,1v2.85c0,.55-.45,1-1,1Z"></path><path d="M17.77,18.58c-.55,0-1-.45-1-1V3c0-.55.45-1,1-1s1,.45,1,1v14.58c0,.55-.45,1-1,1Z"></path><path d="M21.4,18.88h-9.4c-.55,0-1-.45-1-1s.45-1,1-1h9.4c.55,0,1,.45,1,1s-.45,1-1,1Z"></path></svg>